<svg width="136" height="45" viewBox="0 0 136 45" fill="#ED702E" xmlns="http://www.w3.org/2000/svg">
<path d="M36.0745 33.9165H3.65C2.94509 33.9046 2.2729 33.6038 1.77843 33.079C1.28396 32.5542 1.00684 31.8475 1.00684 31.1113C1.00684 30.3751 1.28396 29.6684 1.77843 29.1436C2.2729 28.6188 2.94509 28.3181 3.65 28.3062H36.0745C36.7794 28.3181 37.4516 28.6188 37.9461 29.1436C38.4405 29.6684 38.7177 30.3751 38.7177 31.1113C38.7177 31.8475 38.4405 32.5542 37.9461 33.079C37.4516 33.6038 36.7794 33.9046 36.0745 33.9165V33.9165Z" fill="#ED702E-500"/>
<path d="M36.2267 22.7695C35.5054 22.7695 34.8136 22.4703 34.3036 21.9377C33.7935 21.4051 33.507 20.6827 33.507 19.9295C33.507 12.0731 27.3856 5.68081 19.8622 5.68081C12.3388 5.68081 6.2174 12.0687 6.2174 19.9295C6.20592 20.6749 5.9143 21.3857 5.40545 21.9086C4.89659 22.4315 4.21129 22.7246 3.49737 22.7246C2.78346 22.7246 2.09815 22.4315 1.5893 21.9086C1.08044 21.3857 0.788821 20.6749 0.777344 19.9295C0.777344 8.9401 9.33926 0 19.8622 0C30.3851 0 38.947 8.9401 38.947 19.9295C38.9469 20.6828 38.6602 21.4051 38.15 21.9377C37.6399 22.4703 36.948 22.7695 36.2267 22.7695Z" fill="#ED702E-500"/>
<path d="M10.1784 39.3745C8.974 39.3745 8.47478 41.0141 9.47533 41.7131C12.5502 43.8563 16.1642 45.0002 19.8611 45.0002C23.5581 45.0002 27.1721 43.8563 30.247 41.7131C31.2482 41.0141 30.749 39.3745 29.5438 39.3745H10.1784Z" fill="#ED702E-500"/>
<path d="M78.5623 17.7261C77.6873 16.1362 76.4242 14.817 74.9019 13.9029C73.8541 13.2709 72.703 12.8476 71.5072 12.6547C71.5001 12.6525 71.4928 12.651 71.4854 12.6503C70.9631 12.5585 70.4344 12.513 69.9048 12.5144C69.8738 12.5144 69.8443 12.5144 69.8134 12.5144C69.7972 12.5144 69.781 12.5144 69.7648 12.5144C67.8716 12.5144 66.1588 12.9763 64.6264 13.8999C64.3726 14.0527 64.1279 14.2142 63.8917 14.3882C63.7852 14.0883 63.6191 13.8153 63.4044 13.5872C62.9797 13.1329 62.4442 12.9053 61.7978 12.9043C61.1514 12.9033 60.6156 13.1319 60.1904 13.5901C59.7686 14.0443 59.5576 14.61 59.5576 15.2869V39.2041C59.5576 39.905 59.7686 40.4772 60.1904 40.9207C60.6123 41.3642 61.1481 41.5845 61.7978 41.5815C62.4456 41.5815 62.9811 41.3539 63.4044 40.8987C63.8263 40.4442 64.0372 39.8774 64.0372 39.2019V32.4248C64.2271 32.557 64.4239 32.684 64.6243 32.8037C66.1557 33.7146 67.8685 34.1699 69.7627 34.1694C69.7965 34.1694 69.833 34.1694 69.8661 34.1694C69.8674 34.1701 69.8688 34.1705 69.8703 34.1705C69.8718 34.1705 69.8732 34.1701 69.8745 34.1694C69.9336 34.1694 69.9927 34.1694 70.0517 34.1694C70.811 34.1733 71.5675 34.0729 72.3017 33.8705C73.6082 33.5482 74.8376 32.9496 75.9139 32.1117C76.9902 31.2738 77.8906 30.2144 78.5595 28.9989C79.4684 27.3747 79.9231 25.4958 79.9236 23.3621C79.924 21.2284 79.4703 19.3497 78.5623 17.7261ZM66.9059 29.0598C66.0379 28.5046 65.3282 27.7166 64.8507 26.7778C64.3403 25.8022 64.085 24.6644 64.085 23.3643C64.085 22.0378 64.3403 20.8875 64.8507 19.9134C65.3279 18.9743 66.0376 18.1863 66.9059 17.6314C67.7064 17.1216 68.6209 16.8398 69.5581 16.8141C69.6284 16.8141 69.6952 16.8141 69.7648 16.8141C70.7718 16.8031 71.7616 17.0872 72.6216 17.6343C73.4885 18.1881 74.1974 18.9743 74.6747 19.9112C75.1852 20.8862 75.4404 22.0366 75.4404 23.3621C75.4404 24.6632 75.1852 25.801 74.6747 26.7756C74.1971 27.7145 73.4871 28.5025 72.6188 29.0576C71.7602 29.6062 70.7714 29.8924 69.7648 29.8836C69.6945 29.8836 69.6242 29.8836 69.5581 29.8836C68.6203 29.856 67.7058 29.5719 66.9059 29.0598V29.0598Z" fill="#ED702E-500"/>
<path d="M85.1354 11.601C84.2889 11.601 83.6912 11.4629 83.3425 11.1868C82.9937 10.9108 82.8193 10.4213 82.8193 9.71836V9.00322C82.8193 8.27583 83.0125 7.77997 83.3987 7.51564C83.785 7.25132 84.3765 7.12013 85.1734 7.12209C86.0448 7.12209 86.6542 7.26013 87.0015 7.5362C87.3489 7.81228 87.5232 8.30177 87.5246 9.00468V9.71983C87.5246 10.4482 87.3371 10.9441 86.9621 11.2074C86.5871 11.4708 85.9782 11.6019 85.1354 11.601ZM87.4149 31.8961C87.4226 32.1998 87.3703 32.502 87.2615 32.7838C87.1526 33.0656 86.9895 33.321 86.7821 33.5342C86.3603 33.9747 85.8249 34.195 85.1762 34.195C84.5275 34.195 83.9919 33.9747 83.5696 33.5342C83.3621 33.3211 83.1989 33.0657 83.09 32.7839C82.9811 32.5021 82.929 32.1999 82.9368 31.8961V16.3449C82.929 16.0411 82.9812 15.7389 83.0901 15.4571C83.1989 15.1753 83.3621 14.9199 83.5696 14.7068C83.9914 14.2662 84.527 14.046 85.1762 14.046C85.8254 14.046 86.3607 14.2662 86.7821 14.7068C86.9894 14.92 87.1526 15.1754 87.2614 15.4572C87.3703 15.739 87.4225 16.0411 87.4149 16.3449V31.8961Z" fill="#ED702E-500"/>
<path d="M97.2411 31.846C97.2482 32.1546 97.1937 32.4614 97.0811 32.7468C96.9685 33.0322 96.8003 33.2901 96.5872 33.5039C96.1503 33.9489 95.6085 34.1711 94.9616 34.1706C94.6702 34.1779 94.3805 34.1225 94.1105 34.0078C93.8405 33.8931 93.596 33.7216 93.3922 33.5039C92.9703 33.06 92.7594 32.5073 92.7594 31.846V8.29677C92.7523 7.98818 92.8068 7.68142 92.9194 7.396C93.032 7.11058 93.2002 6.85274 93.4133 6.63886C93.8488 6.1944 94.3904 5.97217 95.0382 5.97217C95.686 5.97217 96.2155 6.1944 96.6266 6.63886C97.0372 7.08381 97.2427 7.63644 97.2432 8.29677L97.2411 31.846Z" fill="#ED702E-500"/>
<path d="M120.496 23.3635C120.496 25.4962 120.042 27.3754 119.132 29.001C118.26 30.5887 116.996 31.9025 115.471 32.8051C113.939 33.7161 112.227 34.1713 110.333 34.1708C108.44 34.1703 106.728 33.7151 105.196 32.8051C103.672 31.903 102.407 30.5897 101.535 29.0025C100.626 27.3779 100.171 25.4987 100.172 23.365C100.172 21.2313 100.627 19.3514 101.535 17.7253C102.411 16.1353 103.674 14.8161 105.197 13.9021C106.728 12.9794 108.441 12.5178 110.334 12.5173C112.227 12.5168 113.94 12.9784 115.472 13.9021C116.994 14.8164 118.257 16.1355 119.133 17.7253C120.042 19.3519 120.496 21.2313 120.496 23.3635ZM116.013 23.3635C116.013 22.037 115.757 20.8867 115.247 19.9126C114.769 18.9742 114.059 18.1863 113.192 17.6306C112.327 17.0942 111.339 16.8111 110.333 16.8111C109.327 16.8111 108.34 17.0942 107.475 17.6306C106.607 18.1859 105.898 18.9739 105.421 19.9126C104.91 20.8882 104.654 22.0385 104.654 23.3635C104.654 24.6646 104.91 25.8027 105.421 26.7777C105.898 27.7164 106.607 28.5044 107.475 29.0598C108.34 29.5961 109.327 29.8792 110.333 29.8792C111.339 29.8792 112.327 29.5961 113.192 29.0598C114.059 28.5039 114.768 27.7161 115.246 26.7777C115.757 25.8022 116.012 24.6641 116.013 23.3635Z" fill="#ED702E-500"/>
<path d="M124.829 13.0694H133.684C134.281 13.0694 134.78 13.2774 135.179 13.6935C135.577 14.1096 135.777 14.6299 135.776 15.2545C135.782 15.5346 135.732 15.8129 135.629 16.0716C135.527 16.3303 135.373 16.5637 135.179 16.7567C134.78 17.1596 134.281 17.361 133.684 17.361H124.829C124.231 17.361 123.733 17.153 123.335 16.7369C122.936 16.3208 122.737 15.8008 122.737 15.1766C122.73 14.8965 122.78 14.6182 122.883 14.3594C122.986 14.1007 123.14 13.8673 123.335 13.6744C123.732 13.2711 124.231 13.0694 124.829 13.0694ZM128.827 8.81079C129.474 8.81079 130.003 9.03841 130.415 9.49363C130.826 9.94886 131.032 10.5147 131.031 11.1912V28.5523C131.031 28.917 131.1 29.216 131.237 29.4495C131.367 29.6779 131.564 29.8559 131.799 29.9569C132.042 30.0625 132.302 30.1157 132.565 30.1133C132.848 30.1166 133.128 30.0568 133.387 29.9378C133.658 29.8157 133.951 29.7556 134.246 29.7616C134.595 29.7616 134.913 29.9307 135.199 30.2689C135.485 30.6072 135.629 31.0754 135.629 31.6735C135.629 32.4019 135.249 33.0003 134.489 33.4688C133.75 33.9307 132.904 34.1734 132.042 34.1707C131.46 34.1666 130.88 34.1209 130.305 34.0341C129.67 33.9438 129.06 33.719 128.512 33.3733C127.949 33.0223 127.482 32.4827 127.11 31.7543C126.739 31.0259 126.551 30.0244 126.548 28.7498V11.1905C126.548 10.514 126.766 9.94813 127.202 9.4929C127.638 9.03767 128.179 8.8103 128.827 8.81079V8.81079Z" fill="#ED702E-500"/>
</svg>
