<svg width="117" height="30" viewBox="0 0 117 30" fill="none" xmlns="http://www.w3.org/2000/svg">
<g clip-path="url(#clip0_2297_4233)">
<path d="M66.3683 9.90796C66.3683 6.49365 66.4272 3.3148 66.6037 0.371429L57.6005 2.07859V2.90273L58.4831 3.02047C59.1304 3.07933 59.5424 3.3148 59.7777 3.66801C60.0131 4.08008 60.1896 4.66876 60.3073 5.55177C60.425 7.25893 60.5427 11.1442 60.4839 17.2664C60.4839 23.3297 60.425 27.1561 60.3073 28.6278C63.5438 29.3342 66.0741 29.6286 67.9571 29.6286C71.4878 29.6286 74.2535 28.6278 76.2543 26.5675C78.255 24.566 79.3142 21.7403 79.3142 18.2671C79.3142 15.5004 78.5492 13.2045 77.0192 11.3796C75.4893 9.55476 73.5474 8.67174 71.2525 8.67174C69.7225 8.67174 68.1337 9.08382 66.3683 9.90796ZM66.5449 28.0391C66.4272 26.1554 66.3095 20.5041 66.3095 11.2619C66.8391 11.0853 67.5452 10.9676 68.4279 10.9676C69.8402 10.9676 70.9582 11.674 71.7821 13.1457C72.6059 14.6174 73.0178 16.3834 73.0178 18.6203C73.0178 21.3871 72.547 23.6241 71.6055 25.5078C70.664 27.3327 69.4871 28.2746 68.016 28.2746C67.5452 28.1569 67.0745 28.098 66.5449 28.0391ZM23.8236 0.960104H0.285706V2.13745L1.52144 2.25519C2.46296 2.43179 3.11025 2.785 3.52217 3.3148C3.93408 3.90348 4.16946 4.84536 4.2283 6.14044C4.69906 12.4981 4.69906 18.4437 4.2283 23.9184C4.11061 25.2135 3.87523 26.1554 3.52217 26.7441C3.11025 27.3327 2.46296 27.6859 1.52144 27.8037L0.285706 27.9803V29.1576H15.4676V27.9803L13.8788 27.8625C12.9373 27.7448 12.29 27.3327 11.8781 26.8029C11.4662 26.2143 11.2308 25.2724 11.172 23.9773C10.9954 21.6226 10.8778 18.9147 10.8778 15.9124L14.0554 15.9713C15.7619 16.0302 16.9388 17.3253 17.5272 19.9154H18.7041V10.32H17.5272C16.9388 12.8513 15.8207 14.1464 14.0554 14.2053L10.8778 14.2642C10.8778 8.96608 10.9954 5.19856 11.172 2.90273H15.8207C19.116 2.90273 21.3521 5.02196 22.6467 9.26042L24.059 8.84835L23.8236 0.960104ZM21.0579 19.0913C21.0579 22.1524 21.9406 24.6837 23.6471 26.6852C25.3536 28.6867 27.8839 29.6286 31.0615 29.6286C34.2391 29.6286 36.8283 28.6278 38.7113 26.5675C40.5943 24.566 41.477 22.0347 41.477 18.9736C41.477 15.9124 40.5943 13.3811 38.8878 11.3796C37.1814 9.37815 34.651 8.43627 31.4734 8.43627C28.2958 8.43627 25.7066 9.43702 23.8236 11.4974C21.9406 13.4989 21.0579 16.0302 21.0579 19.0913ZM34.1803 12.3804C34.8864 14.0876 35.1806 16.3245 35.1806 19.0324C35.1806 25.2724 33.886 28.3335 31.3557 28.3335C30.0611 28.3335 29.0608 27.4505 28.3546 25.6844C27.6485 23.9184 27.3543 21.6815 27.3543 19.0324C27.3543 12.8513 28.6489 9.79023 31.1792 9.79023C32.4738 9.73136 33.4741 10.6144 34.1803 12.3804ZM83.9041 26.6852C85.846 28.6278 88.3174 29.6286 91.2597 29.6286C93.0839 29.6286 94.6727 29.2754 96.0849 28.5101C97.4972 27.8037 98.6153 26.9207 99.3802 25.861L98.7918 25.1546C97.4972 26.1554 96.0261 26.6263 94.3196 26.6263C91.9658 26.6263 90.1416 25.861 88.9059 24.2716C87.6113 22.6822 87.0228 20.6807 87.1405 18.0905H99.7333C99.7333 15.2649 99.0272 12.9691 97.5561 11.1442C96.0849 9.37815 94.0254 8.49514 91.3774 8.49514C88.082 8.49514 85.5517 9.55476 83.7275 11.6151C81.9034 13.6755 81.0207 16.2068 81.0207 19.209C81.0207 22.2701 81.9622 24.7426 83.9041 26.6852ZM88.2586 11.9095C88.9059 10.4966 89.7297 9.79023 90.8477 9.79023C92.6131 9.79023 93.4958 12.0272 93.4958 16.56L87.2582 16.6777C87.3171 14.9117 87.6113 13.3223 88.2586 11.9095ZM115.563 9.55476C113.974 8.84835 111.973 8.43627 109.56 8.43627C107.089 8.43627 105.147 9.08382 103.676 10.32C102.205 11.5563 101.44 13.0868 101.44 14.9117C101.44 16.5011 101.911 17.7373 102.793 18.6203C103.676 19.5034 105.088 20.2686 106.912 20.9162C108.56 21.5049 109.737 22.0935 110.325 22.6233C110.914 23.212 111.267 23.8596 111.267 24.7426C111.267 25.5667 110.973 26.332 110.325 26.9207C109.737 27.5682 108.913 27.8625 107.854 27.8625C105.265 27.8625 103.323 25.9788 101.969 22.2113L100.969 22.5056L101.204 28.3924C103.323 29.2165 105.677 29.6286 108.266 29.6286C110.973 29.6286 113.032 29.0399 114.562 27.8037C116.092 26.6263 116.857 24.9192 116.857 22.7999C116.857 21.3871 116.504 20.2098 115.739 19.3268C114.974 18.4437 113.738 17.6785 111.973 16.9721C110.031 16.2657 108.678 15.6181 107.972 15.0294C107.265 14.4408 106.912 13.7343 106.912 12.8513C106.912 11.9683 107.148 11.2619 107.677 10.6732C108.207 10.0846 108.854 9.84909 109.678 9.84909C112.032 9.84909 113.738 11.5563 114.798 14.9117L115.798 14.6174L115.563 9.55476ZM58.9539 9.02495C58.1301 8.61288 57.2474 8.43627 56.247 8.43627C55.2467 8.43627 54.2463 8.84835 53.1283 9.67249C52.0102 10.4966 51.1864 11.6151 50.5391 13.1457L50.598 8.43627L41.6536 10.2023V11.0264L42.5362 11.0853C43.6543 11.203 44.3016 12.0861 44.4193 13.6755C44.7723 17.3253 44.7723 21.2105 44.4193 25.3312C44.3016 26.9207 43.6543 27.7448 42.5362 27.9214L41.6536 28.0391V29.1576H54.1286V28.0391L52.5398 27.9214C51.4218 27.8037 50.7745 26.9207 50.6568 25.3312C50.3037 21.9169 50.2449 18.2671 50.5391 14.4996C50.8922 13.911 51.6572 13.5577 52.8341 13.44C54.0109 13.3223 55.3644 13.6755 56.7766 14.4996L58.9539 9.02495Z" fill="#242323"/>
</g>
<defs>
<clipPath id="clip0_2297_4233">
<rect width="116.571" height="29.2571" fill="white" transform="translate(0.285706 0.371429)"/>
</clipPath>
</defs>
</svg>
